<svg width="20" height="20" viewBox="0 0 20 20" fill="none" xmlns="http://www.w3.org/2000/svg">
<path d="M12.5001 18.3333C12.264 18.3333 12.0661 18.2535 11.9063 18.0938C11.7466 17.934 11.6667 17.7361 11.6667 17.5V16.6042C11.3473 16.5486 11.0452 16.4688 10.7605 16.3646C10.4758 16.2604 10.2084 16.1181 9.95842 15.9375L9.12508 16.7708C8.95842 16.9236 8.7605 17.0035 8.53133 17.0104C8.30217 17.0174 8.10425 16.9375 7.93758 16.7708C7.77092 16.6042 7.68758 16.4063 7.68758 16.1771C7.68758 15.9479 7.77092 15.75 7.93758 15.5833L8.79175 14.7292C8.75008 14.6597 8.70842 14.5868 8.66675 14.5104C8.62508 14.434 8.58342 14.3611 8.54175 14.2917L7.97925 13.1875L6.95842 14.2083C6.79175 14.3611 6.5973 14.441 6.37508 14.4479C6.15286 14.4549 5.95842 14.375 5.79175 14.2083C5.62508 14.0417 5.54175 13.8472 5.54175 13.625C5.54175 13.4028 5.62508 13.2083 5.79175 13.0417L6.81258 12L5.70842 11.4583C5.63897 11.4306 5.57647 11.3993 5.52092 11.3646C5.46536 11.3299 5.40286 11.2917 5.33342 11.25L4.58342 12C4.41675 12.1528 4.21883 12.2326 3.98967 12.2396C3.7605 12.2465 3.56258 12.1667 3.39591 12C3.22925 11.8333 3.14591 11.6389 3.14591 11.4167C3.14591 11.1945 3.22925 11 3.39591 10.8333L4.12508 10.1042C3.93064 9.84028 3.77439 9.55903 3.65633 9.26042C3.53828 8.96181 3.45147 8.65278 3.39591 8.33334H2.50008C2.26397 8.33334 2.06605 8.25348 1.90633 8.09376C1.74661 7.93403 1.66675 7.73612 1.66675 7.50001C1.66675 7.26389 1.74661 7.06598 1.90633 6.90626C2.06605 6.74653 2.26397 6.66667 2.50008 6.66667H3.43758C3.50703 6.40278 3.59036 6.15278 3.68758 5.91667C3.7848 5.68056 3.9098 5.45139 4.06258 5.22917L3.33341 4.50001C3.16675 4.33334 3.08341 4.13889 3.08341 3.91667C3.08341 3.69445 3.16675 3.50001 3.33341 3.33334C3.50008 3.16667 3.69453 3.08334 3.91675 3.08334C4.13897 3.08334 4.33342 3.16667 4.50008 3.33334L5.22925 4.06251C5.45147 3.90973 5.68064 3.78473 5.91675 3.68751C6.15286 3.59028 6.40286 3.50695 6.66675 3.43751V2.50001C6.66675 2.26389 6.74661 2.06598 6.90633 1.90626C7.06605 1.74653 7.26397 1.66667 7.50008 1.66667C7.73619 1.66667 7.93411 1.74653 8.09383 1.90626C8.25355 2.06598 8.33342 2.26389 8.33342 2.50001V3.39584C8.66675 3.45139 8.98272 3.54167 9.28133 3.66667C9.57994 3.79167 9.86119 3.95139 10.1251 4.14584L10.8542 3.41667C11.0209 3.25001 11.2188 3.16667 11.448 3.16667C11.6772 3.16667 11.8751 3.25001 12.0417 3.41667C12.2084 3.58334 12.2917 3.77778 12.2917 4.00001C12.2917 4.22223 12.2084 4.41667 12.0417 4.58334L11.2709 5.35417C11.2987 5.40973 11.3299 5.46528 11.3647 5.52084C11.3994 5.57639 11.4306 5.63889 11.4584 5.70834L11.9792 6.75001L12.9376 5.79167C13.1042 5.62501 13.3022 5.54167 13.5313 5.54167C13.7605 5.54167 13.9584 5.62501 14.1251 5.79167C14.2917 5.95834 14.3751 6.15626 14.3751 6.38542C14.3751 6.61459 14.2917 6.81251 14.1251 6.97917L13.1251 7.95834L14.2917 8.54167C14.3751 8.58334 14.4619 8.62848 14.5522 8.67709C14.6424 8.7257 14.7223 8.77778 14.7917 8.83334L15.6251 8.00001C15.7917 7.83334 15.9862 7.75001 16.2084 7.75001C16.4306 7.75001 16.6251 7.83334 16.7917 8.00001C16.9584 8.16667 17.0417 8.36459 17.0417 8.59376C17.0417 8.82292 16.9584 9.02084 16.7917 9.18751L15.9584 10C16.1251 10.25 16.2605 10.5139 16.3647 10.7917C16.4688 11.0695 16.5487 11.3611 16.6042 11.6667H17.5001C17.7362 11.6667 17.9341 11.7465 18.0938 11.9063C18.2536 12.066 18.3334 12.2639 18.3334 12.5C18.3334 12.7361 18.2536 12.934 18.0938 13.0938C17.9341 13.2535 17.7362 13.3333 17.5001 13.3333H16.5626C16.4931 13.5972 16.4098 13.8438 16.3126 14.0729C16.2154 14.3021 16.0904 14.5278 15.9376 14.75L16.6459 15.4583C16.8126 15.625 16.8959 15.8229 16.8959 16.0521C16.8959 16.2813 16.8126 16.4792 16.6459 16.6458C16.4792 16.7986 16.2813 16.8785 16.0522 16.8854C15.823 16.8924 15.6251 16.8125 15.4584 16.6458L14.7709 15.9375C14.5487 16.0903 14.3195 16.2153 14.0834 16.3125C13.8473 16.4097 13.5973 16.4931 13.3334 16.5625V17.5C13.3334 17.7361 13.2536 17.934 13.0938 18.0938C12.9341 18.2535 12.7362 18.3333 12.5001 18.3333ZM12.3751 15C13.1806 15 13.8438 14.6945 14.3647 14.0833C14.8855 13.4722 15.0834 12.7639 14.9584 11.9583C14.889 11.5417 14.7327 11.1667 14.4897 10.8333C14.2466 10.5 13.9306 10.2361 13.5417 10.0417L12.1667 9.33334C11.8473 9.16667 11.5591 8.95487 11.3022 8.69792C11.0452 8.44098 10.8334 8.15278 10.6667 7.83334L9.95842 6.45834C9.73619 6.01389 9.41675 5.65973 9.00008 5.39584C8.58342 5.13195 8.12508 5.00001 7.62508 5.00001C6.81953 5.00001 6.15633 5.30556 5.6355 5.91667C5.11467 6.52778 4.91675 7.23612 5.04175 8.04167C5.11119 8.45834 5.26744 8.83334 5.5105 9.16667C5.75355 9.50001 6.06953 9.7639 6.45842 9.95834L7.83342 10.6667C8.15286 10.8333 8.44105 11.0451 8.698 11.3021C8.95494 11.559 9.16675 11.8472 9.33342 12.1667L10.0417 13.5417C10.264 13.9861 10.5834 14.3403 11.0001 14.6042C11.4167 14.8681 11.8751 15 12.3751 15ZM7.91675 8.75001C8.26397 8.75001 8.55911 8.62848 8.80217 8.38542C9.04522 8.14237 9.16675 7.84723 9.16675 7.50001C9.16675 7.15278 9.04522 6.85764 8.80217 6.61459C8.55911 6.37153 8.26397 6.25001 7.91675 6.25001C7.56953 6.25001 7.27439 6.37153 7.03133 6.61459C6.78828 6.85764 6.66675 7.15278 6.66675 7.50001C6.66675 7.84723 6.78828 8.14237 7.03133 8.38542C7.27439 8.62848 7.56953 8.75001 7.91675 8.75001ZM12.0834 13.9583C12.3751 13.9583 12.6216 13.8576 12.823 13.6563C13.0244 13.4549 13.1251 13.2083 13.1251 12.9167C13.1251 12.625 13.0244 12.3785 12.823 12.1771C12.6216 11.9757 12.3751 11.875 12.0834 11.875C11.7917 11.875 11.5452 11.9757 11.3438 12.1771C11.1424 12.3785 11.0417 12.625 11.0417 12.9167C11.0417 13.2083 11.1424 13.4549 11.3438 13.6563C11.5452 13.8576 11.7917 13.9583 12.0834 13.9583Z" fill="black"/>
</svg>
