<svg width="20" height="20" viewBox="0 0 20 20" fill="none" xmlns="http://www.w3.org/2000/svg">
<path d="M6.66675 18.75L5.00008 17.5V14.1667H4.16675C3.70841 14.1667 3.31605 14.0035 2.98966 13.6771C2.66328 13.3507 2.50008 12.9583 2.50008 12.5V6.25C2.26397 6.25 2.06605 6.17014 1.90633 6.01041C1.74661 5.85069 1.66675 5.65278 1.66675 5.41666C1.66675 5.18055 1.74661 4.98264 1.90633 4.82291C2.06605 4.66319 2.26397 4.58333 2.50008 4.58333H5.00008V3.33333H4.58341C4.3473 3.33333 4.14939 3.25347 3.98966 3.09375C3.82994 2.93403 3.75008 2.73611 3.75008 2.5C3.75008 2.26389 3.82994 2.06597 3.98966 1.90625C4.14939 1.74653 4.3473 1.66666 4.58341 1.66666H7.08342C7.31953 1.66666 7.51744 1.74653 7.67717 1.90625C7.83689 2.06597 7.91675 2.26389 7.91675 2.5C7.91675 2.73611 7.83689 2.93403 7.67717 3.09375C7.51744 3.25347 7.31953 3.33333 7.08342 3.33333H6.66675V4.58333H9.16675C9.40286 4.58333 9.60078 4.66319 9.7605 4.82291C9.92022 4.98264 10.0001 5.18055 10.0001 5.41666C10.0001 5.65278 9.92022 5.85069 9.7605 6.01041C9.60078 6.17014 9.40286 6.25 9.16675 6.25V12.5C9.16675 12.9583 9.00355 13.3507 8.67717 13.6771C8.35078 14.0035 7.95842 14.1667 7.50008 14.1667H6.66675V18.75ZM4.16675 12.5H7.50008V11.25H6.04175C5.87508 11.25 5.72925 11.1875 5.60425 11.0625C5.47925 10.9375 5.41675 10.7917 5.41675 10.625C5.41675 10.4583 5.47925 10.3125 5.60425 10.1875C5.72925 10.0625 5.87508 10 6.04175 10H7.50008V8.75H6.04175C5.87508 8.75 5.72925 8.6875 5.60425 8.5625C5.47925 8.4375 5.41675 8.29166 5.41675 8.125C5.41675 7.95833 5.47925 7.8125 5.60425 7.6875C5.72925 7.5625 5.87508 7.5 6.04175 7.5H7.50008V6.25H4.16675V12.5ZM12.5001 18.3333C12.0417 18.3333 11.6494 18.1701 11.323 17.8437C10.9966 17.5174 10.8334 17.125 10.8334 16.6667V11.25C10.8334 10.8472 10.9029 10.5139 11.0417 10.25C11.1806 9.98611 11.3265 9.75694 11.4792 9.5625C11.632 9.36805 11.7709 9.2118 11.8959 9.09375C12.0209 8.97569 12.0834 8.86111 12.0834 8.75V8.33333C11.8473 8.33333 11.6494 8.25347 11.4897 8.09375C11.3299 7.93403 11.2501 7.73611 11.2501 7.5C11.2501 7.26389 11.3299 7.06597 11.4897 6.90625C11.6494 6.74653 11.8473 6.66666 12.0834 6.66666H16.2501C16.4862 6.66666 16.6841 6.74653 16.8438 6.90625C17.0036 7.06597 17.0834 7.26389 17.0834 7.5C17.0834 7.73611 17.0036 7.93403 16.8438 8.09375C16.6841 8.25347 16.4862 8.33333 16.2501 8.33333V8.75C16.2501 8.86111 16.3195 8.98611 16.4584 9.125C16.5973 9.26389 16.7501 9.43055 16.9167 9.625C17.0695 9.81944 17.2049 10.0486 17.323 10.3125C17.4411 10.5764 17.5001 10.8889 17.5001 11.25V16.6667C17.5001 17.125 17.3369 17.5174 17.0105 17.8437C16.6841 18.1701 16.2917 18.3333 15.8334 18.3333H12.5001ZM12.5001 11.6667H15.8334V11.25C15.8334 11.0417 15.7709 10.8611 15.6459 10.7083C15.5209 10.5556 15.382 10.3889 15.2292 10.2083C15.0765 10.0278 14.9306 9.82639 14.7917 9.60416C14.6529 9.38194 14.5834 9.09722 14.5834 8.75V8.33333H13.7501V8.75C13.7501 9.08333 13.6841 9.36111 13.5522 9.58333C13.4202 9.80555 13.2779 10.0069 13.1251 10.1875C12.9723 10.3681 12.8299 10.5382 12.698 10.6979C12.5661 10.8576 12.5001 11.0417 12.5001 11.25V11.6667ZM12.5001 14.1667H15.8334V12.9167H12.5001V14.1667ZM12.5001 16.6667H15.8334V15.4167H12.5001V16.6667Z" fill="white"/>
</svg>
