<svg width="31" height="30" viewBox="0 0 31 30" fill="none" xmlns="http://www.w3.org/2000/svg">
<path d="M14.2503 25C13.8962 25 13.5993 24.8802 13.3597 24.6406C13.1201 24.401 13.0003 24.1042 13.0003 23.75V16.25L5.75034 7C5.43784 6.58333 5.39097 6.14583 5.60972 5.6875C5.82847 5.22917 6.20868 5 6.75034 5H24.2503C24.792 5 25.1722 5.22917 25.391 5.6875C25.6097 6.14583 25.5628 6.58333 25.2503 7L18.0003 16.25V23.75C18.0003 24.1042 17.8806 24.401 17.641 24.6406C17.4014 24.8802 17.1045 25 16.7503 25H14.2503ZM15.5003 15.375L21.6878 7.5H9.31284L15.5003 15.375Z" fill="black"/>
</svg>
