<svg width="24" height="25" viewBox="0 0 24 25" fill="none" xmlns="http://www.w3.org/2000/svg">
<path d="M16.1 11.2L14.65 12.65C14.8 13.4333 14.575 14.1667 13.975 14.85C13.375 15.5333 12.6 15.8 11.65 15.65L10.2 17.1C10.4833 17.2333 10.7708 17.3333 11.0625 17.4C11.3542 17.4667 11.6667 17.5 12 17.5C13.25 17.5 14.3125 17.0625 15.1875 16.1875C16.0625 15.3125 16.5 14.25 16.5 13C16.5 12.6667 16.4667 12.3542 16.4 12.0625C16.3333 11.7708 16.2333 11.4833 16.1 11.2ZM19.3 8.05001L17.85 9.45001C18.4833 9.93334 19.0458 10.4625 19.5375 11.0375C20.0292 11.6125 20.45 12.2667 20.8 13C19.9667 14.6833 18.7708 16.0208 17.2125 17.0125C15.6542 18.0042 13.9167 18.5 12 18.5C11.5167 18.5 11.0417 18.4667 10.575 18.4C10.1083 18.3333 9.65 18.2333 9.2 18.1L7.65 19.65C8.33333 19.9333 9.03333 20.1458 9.75 20.2875C10.4667 20.4292 11.2167 20.5 12 20.5C14.5167 20.5 16.7583 19.8042 18.725 18.4125C20.6917 17.0208 22.1167 15.2167 23 13C22.6167 12.0167 22.1125 11.1042 21.4875 10.2625C20.8625 9.42084 20.1333 8.68334 19.3 8.05001ZM19.8 1.90001L15.6 6.05001C15.0167 5.86668 14.4292 5.72918 13.8375 5.63751C13.2458 5.54585 12.6333 5.50001 12 5.50001C9.48333 5.50001 7.24167 6.19584 5.275 7.58751C3.30833 8.97918 1.88333 10.7833 1 13C1.35 13.8833 1.79167 14.7042 2.325 15.4625C2.85833 16.2208 3.46667 16.9 4.15 17.5L1.4 20.3L2.8 21.7L21.2 3.30001L19.8 1.90001ZM5.55 16.1C5.06667 15.6667 4.625 15.1917 4.225 14.675C3.825 14.1583 3.48333 13.6 3.2 13C4.03333 11.3167 5.22917 9.97918 6.7875 8.98751C8.34583 7.99584 10.0833 7.50001 12 7.50001C12.3333 7.50001 12.6583 7.52084 12.975 7.56251C13.2917 7.60418 13.6167 7.65001 13.95 7.70001L13.05 8.65001C12.8667 8.60001 12.6917 8.56251 12.525 8.53751C12.3583 8.51251 12.1833 8.50001 12 8.50001C10.75 8.50001 9.6875 8.93751 8.8125 9.81251C7.9375 10.6875 7.5 11.75 7.5 13C7.5 13.1833 7.5125 13.3583 7.5375 13.525C7.5625 13.6917 7.6 13.8667 7.65 14.05L5.55 16.1Z" fill="#303030"/>
</svg>
