<svg width="1313" height="209" viewBox="0 0 1313 209" fill="none" xmlns="http://www.w3.org/2000/svg">
<g style="mix-blend-mode:multiply" opacity="0.33">
<path d="M684.521 1.42456C688.658 1.42456 691.811 1.59319 694.233 1.94897C696.658 2.30515 698.317 2.84424 699.486 3.56128C701.488 4.78827 702.161 6.59725 702.683 9.33862L702.9 10.571C703.488 14.0959 705.394 18.3997 708.991 21.6433C712.603 24.8998 717.892 27.0614 725.175 26.3259C732.314 25.6051 739.419 25.2491 745.369 25.9197C751.157 26.572 755.727 28.1826 758.229 31.2419L758.464 31.5427C761.039 34.9739 763.679 38.4109 768.67 40.6111C773.647 42.8055 780.898 43.7455 792.661 42.3875C804.356 41.0373 809.373 42.0894 812.521 43.8171C814.112 44.69 815.243 45.7409 816.571 46.8435C817.894 47.9412 819.37 49.0495 821.584 49.9343C825.884 51.6532 829.783 53.0219 834.34 53.7751C838.897 54.5285 844.091 54.6626 850.986 53.9373C854.429 53.5751 856.654 53.2353 858.339 52.9695C860.028 52.703 861.143 52.5169 862.397 52.4509C864.912 52.3187 868.001 52.6691 877.172 53.9353C894.89 56.3815 901.277 57.8047 909.902 62.281L910.745 62.7244L911.137 62.9324C915.558 65.2878 918.727 66.9808 922.923 67.864C926.852 68.691 931.652 68.8037 939.214 68.1541L940.764 68.0144C949.341 67.2024 953.394 67.4401 956.003 68.2849C957.295 68.7034 958.25 69.2768 959.246 69.9802C960.233 70.6766 961.311 71.5408 962.753 72.4509C965.586 74.2391 969.195 76.7427 972.999 78.8494C976.685 80.8904 980.631 82.605 984.354 82.9636L984.714 82.9939C986.603 83.1315 988.414 83.0854 990.261 82.9949C992.116 82.9039 993.991 82.7693 996.056 82.7244C999.906 82.6406 1004.38 82.87 1010.3 84.3005L1011.5 84.6033C1014.79 85.4616 1017.19 86.0381 1019.02 86.4861C1020.86 86.9355 1022.11 87.2519 1023.12 87.5935C1024.86 88.1799 1025.91 88.838 1028.06 90.4451L1029.05 91.1951C1031.94 93.3845 1034.72 95.0942 1038.95 96.1765C1042.9 97.1866 1048.1 97.6445 1055.82 97.4744L1057.39 97.4324C1065.98 97.1613 1070.65 97.1645 1073.88 97.6746C1077.07 98.1774 1078.86 99.1714 1081.7 100.965C1084.6 102.792 1090.5 105.792 1097.21 107.589C1103.69 109.326 1111 109.964 1117.06 107.221L1117.64 106.945L1117.86 106.837C1123.83 103.876 1130.1 100.77 1135.58 97.5291C1140.88 94.3939 1145.49 91.1043 1148.41 87.656L1148.69 87.322C1151.58 83.7631 1154.52 79.6071 1158.55 76.863C1162.4 74.2368 1167.27 72.906 1174.07 74.8357L1174.73 75.032C1181.98 77.2721 1186.13 80.031 1190.29 82.0867C1194.34 84.0874 1198.32 85.3601 1204.9 84.6873L1205.55 84.616C1212.44 83.8003 1217.25 83.041 1221.78 83.0857C1226.28 83.1301 1230.51 83.9698 1236.17 86.3835C1241.83 88.7952 1245.35 90.7295 1249.55 91.6902C1253.79 92.6586 1258.73 92.6479 1267.33 91.2908C1275.89 89.9392 1280.84 89.6774 1284.92 90.1873C1287.98 90.5702 1290.56 91.3878 1293.84 92.5378L1297.39 93.7947C1305.59 96.669 1312.5 104.364 1312.5 112.935V189.01C1312.5 199.779 1303.77 208.51 1293 208.51H20C9.23045 208.51 0.5 199.779 0.5 189.01V127.54C0.5 118.395 6.82897 110.395 15.7842 109.331L16.2129 109.286C19.0739 109.019 21.8378 108.872 24.1641 108.939L25.1338 108.981C34.2256 109.519 42.1477 112.204 49.0664 113.842C56.0529 115.495 65.3015 114.385 75.0488 111.671C84.363 109.077 94.2325 109.491 106.256 111.484L107.427 111.682C120.005 113.847 128.086 109.595 131.624 107.733L131.625 107.734L131.763 107.662C133.417 106.792 138.493 104.869 145.039 104.288C151.577 103.708 159.539 104.469 167.005 108.912C182.391 118.067 196.331 112.197 200.893 110.578C201.971 110.195 203.666 109.927 205.749 109.767C207.82 109.608 210.235 109.558 212.728 109.592C217.715 109.659 222.98 110.064 226.381 110.6C229.831 111.145 234.728 111.691 239.92 111.464C244.945 111.243 250.281 110.296 254.854 107.893L255.294 107.657C259.767 105.187 266.533 104.063 273.321 103.499C276.704 103.218 280.072 103.078 283.135 102.973C285.809 102.882 288.261 102.818 290.275 102.713L291.111 102.665C299.368 102.144 306.758 102.302 314.097 97.6326L314.807 97.1658C321.847 92.3805 331.034 91.528 343.51 94.0935L344.728 94.3523C351.385 95.8137 358.605 95.5387 364.735 94.2869C367.802 93.6606 370.607 92.7875 372.941 91.7585C375.123 90.797 376.921 89.6872 378.133 88.4919L378.367 88.2517C379.44 87.1091 381.008 86.1837 382.993 85.4021C384.975 84.6217 387.339 83.997 389.974 83.4353C392.607 82.8738 395.491 82.3793 398.515 81.8542C401.534 81.3299 404.689 80.7755 407.845 80.0964C414.122 78.7458 418.325 77.7885 421.887 76.1599C425.246 74.6238 428.014 72.5015 431.431 68.949L432.123 68.2195C435.766 64.3288 441.666 60.9135 448.264 60.0496C454.841 59.1883 462.12 60.86 468.58 67.1531C475.184 73.586 479.678 76.6186 485.138 78.4792C490.21 80.2078 496.121 80.921 505.281 82.4832L507.157 82.8074L507.888 82.9353C517.961 84.702 526.428 86.1891 533.152 86.1296C539.679 86.0719 544.689 84.5561 547.944 80.3162L548.254 79.8972C551.398 75.478 554.641 71.2143 559.349 68.0437C564.043 64.8817 570.233 62.783 579.299 62.783C588.412 62.783 594.074 62.8777 598.73 61.615C603.141 60.4189 606.625 58.0169 611.303 53.3152L612.255 52.3435C617.429 46.9913 619.921 44.4291 623.44 43.0789C625.2 42.4038 627.238 42.0256 630.032 41.7849C632.13 41.6042 634.636 41.502 637.75 41.405L641.074 41.3074C645.784 41.1723 649.137 41.0479 651.6 40.7136C654.065 40.3789 655.714 39.8256 656.965 38.7771C658.207 37.7355 658.995 36.2538 659.855 34.2263C660.731 32.1624 661.672 29.5582 663.247 26.033C664.83 22.4899 665.946 19.1508 666.98 16.1628C668.019 13.1624 668.97 10.5332 670.229 8.34741C671.482 6.17436 673.028 4.45877 675.249 3.27808C677.338 2.16754 680.061 1.51017 683.768 1.43237L684.521 1.42456Z" fill="url(#paint0_linear_122_1051)"/>
<path d="M684.521 1.42456C688.658 1.42456 691.811 1.59319 694.233 1.94897C696.658 2.30515 698.317 2.84424 699.486 3.56128C701.488 4.78827 702.161 6.59725 702.683 9.33862L702.9 10.571C703.488 14.0959 705.394 18.3997 708.991 21.6433C712.603 24.8998 717.892 27.0614 725.175 26.3259C732.314 25.6051 739.419 25.2491 745.369 25.9197C751.157 26.572 755.727 28.1826 758.229 31.2419L758.464 31.5427C761.039 34.9739 763.679 38.4109 768.67 40.6111C773.647 42.8055 780.898 43.7455 792.661 42.3875C804.356 41.0373 809.373 42.0894 812.521 43.8171C814.112 44.69 815.243 45.7409 816.571 46.8435C817.894 47.9412 819.37 49.0495 821.584 49.9343C825.884 51.6532 829.783 53.0219 834.34 53.7751C838.897 54.5285 844.091 54.6626 850.986 53.9373C854.429 53.5751 856.654 53.2353 858.339 52.9695C860.028 52.703 861.143 52.5169 862.397 52.4509C864.912 52.3187 868.001 52.6691 877.172 53.9353C894.89 56.3815 901.277 57.8047 909.902 62.281L910.745 62.7244L911.137 62.9324C915.558 65.2878 918.727 66.9808 922.923 67.864C926.852 68.691 931.652 68.8037 939.214 68.1541L940.764 68.0144C949.341 67.2024 953.394 67.4401 956.003 68.2849C957.295 68.7034 958.25 69.2768 959.246 69.9802C960.233 70.6766 961.311 71.5408 962.753 72.4509C965.586 74.2391 969.195 76.7427 972.999 78.8494C976.685 80.8904 980.631 82.605 984.354 82.9636L984.714 82.9939C986.603 83.1315 988.414 83.0854 990.261 82.9949C992.116 82.9039 993.991 82.7693 996.056 82.7244C999.906 82.6406 1004.38 82.87 1010.3 84.3005L1011.5 84.6033C1014.79 85.4616 1017.19 86.0381 1019.02 86.4861C1020.86 86.9355 1022.11 87.2519 1023.12 87.5935C1024.86 88.1799 1025.91 88.838 1028.06 90.4451L1029.05 91.1951C1031.94 93.3845 1034.72 95.0942 1038.95 96.1765C1042.9 97.1866 1048.1 97.6445 1055.82 97.4744L1057.39 97.4324C1065.98 97.1613 1070.65 97.1645 1073.88 97.6746C1077.07 98.1774 1078.86 99.1714 1081.7 100.965C1084.6 102.792 1090.5 105.792 1097.21 107.589C1103.69 109.326 1111 109.964 1117.06 107.221L1117.64 106.945L1117.86 106.837C1123.83 103.876 1130.1 100.77 1135.58 97.5291C1140.88 94.3939 1145.49 91.1043 1148.41 87.656L1148.69 87.322C1151.58 83.7631 1154.52 79.6071 1158.55 76.863C1162.4 74.2368 1167.27 72.906 1174.07 74.8357L1174.73 75.032C1181.98 77.2721 1186.13 80.031 1190.29 82.0867C1194.34 84.0874 1198.32 85.3601 1204.9 84.6873L1205.55 84.616C1212.44 83.8003 1217.25 83.041 1221.78 83.0857C1226.28 83.1301 1230.51 83.9698 1236.17 86.3835C1241.83 88.7952 1245.35 90.7295 1249.55 91.6902C1253.79 92.6586 1258.73 92.6479 1267.33 91.2908C1275.89 89.9392 1280.84 89.6774 1284.92 90.1873C1287.98 90.5702 1290.56 91.3878 1293.84 92.5378L1297.39 93.7947C1305.59 96.669 1312.5 104.364 1312.5 112.935V189.01C1312.5 199.779 1303.77 208.51 1293 208.51H20C9.23045 208.51 0.5 199.779 0.5 189.01V127.54C0.5 118.395 6.82897 110.395 15.7842 109.331L16.2129 109.286C19.0739 109.019 21.8378 108.872 24.1641 108.939L25.1338 108.981C34.2256 109.519 42.1477 112.204 49.0664 113.842C56.0529 115.495 65.3015 114.385 75.0488 111.671C84.363 109.077 94.2325 109.491 106.256 111.484L107.427 111.682C120.005 113.847 128.086 109.595 131.624 107.733L131.625 107.734L131.763 107.662C133.417 106.792 138.493 104.869 145.039 104.288C151.577 103.708 159.539 104.469 167.005 108.912C182.391 118.067 196.331 112.197 200.893 110.578C201.971 110.195 203.666 109.927 205.749 109.767C207.82 109.608 210.235 109.558 212.728 109.592C217.715 109.659 222.98 110.064 226.381 110.6C229.831 111.145 234.728 111.691 239.92 111.464C244.945 111.243 250.281 110.296 254.854 107.893L255.294 107.657C259.767 105.187 266.533 104.063 273.321 103.499C276.704 103.218 280.072 103.078 283.135 102.973C285.809 102.882 288.261 102.818 290.275 102.713L291.111 102.665C299.368 102.144 306.758 102.302 314.097 97.6326L314.807 97.1658C321.847 92.3805 331.034 91.528 343.51 94.0935L344.728 94.3523C351.385 95.8137 358.605 95.5387 364.735 94.2869C367.802 93.6606 370.607 92.7875 372.941 91.7585C375.123 90.797 376.921 89.6872 378.133 88.4919L378.367 88.2517C379.44 87.1091 381.008 86.1837 382.993 85.4021C384.975 84.6217 387.339 83.997 389.974 83.4353C392.607 82.8738 395.491 82.3793 398.515 81.8542C401.534 81.3299 404.689 80.7755 407.845 80.0964C414.122 78.7458 418.325 77.7885 421.887 76.1599C425.246 74.6238 428.014 72.5015 431.431 68.949L432.123 68.2195C435.766 64.3288 441.666 60.9135 448.264 60.0496C454.841 59.1883 462.12 60.86 468.58 67.1531C475.184 73.586 479.678 76.6186 485.138 78.4792C490.21 80.2078 496.121 80.921 505.281 82.4832L507.157 82.8074L507.888 82.9353C517.961 84.702 526.428 86.1891 533.152 86.1296C539.679 86.0719 544.689 84.5561 547.944 80.3162L548.254 79.8972C551.398 75.478 554.641 71.2143 559.349 68.0437C564.043 64.8817 570.233 62.783 579.299 62.783C588.412 62.783 594.074 62.8777 598.73 61.615C603.141 60.4189 606.625 58.0169 611.303 53.3152L612.255 52.3435C617.429 46.9913 619.921 44.4291 623.44 43.0789C625.2 42.4038 627.238 42.0256 630.032 41.7849C632.13 41.6042 634.636 41.502 637.75 41.405L641.074 41.3074C645.784 41.1723 649.137 41.0479 651.6 40.7136C654.065 40.3789 655.714 39.8256 656.965 38.7771C658.207 37.7355 658.995 36.2538 659.855 34.2263C660.731 32.1624 661.672 29.5582 663.247 26.033C664.83 22.4899 665.946 19.1508 666.98 16.1628C668.019 13.1624 668.97 10.5332 670.229 8.34741C671.482 6.17436 673.028 4.45877 675.249 3.27808C677.338 2.16754 680.061 1.51017 683.768 1.43237L684.521 1.42456Z" stroke="#79B51B"/>
</g>
<path d="M5.14844 110.299C10.4447 109.225 22.853 107.183 30.1157 107.613C39.1942 108.15 47.138 110.836 53.9469 112.448C60.7559 114.059 69.8345 112.985 79.4805 110.299C89.1265 107.613 99.3399 108.15 111.823 110.299C124.306 112.448 132.25 108.15 135.654 106.36C139.059 104.569 156.061 98.66 171.107 107.613C186.154 116.566 199.772 110.836 204.311 109.225C208.851 107.613 223.036 108.15 229.845 109.225C236.654 110.299 249.137 111.374 258.216 106.36C267.294 101.346 285.451 101.883 293.963 101.346C302.474 100.809 309.85 100.988 317.226 95.974C324.603 90.9603 334.249 90.2441 347.299 93.1091C360.35 95.974 375.67 92.0347 380.209 87.2C384.749 82.3654 397.232 81.6492 409.715 78.9633C422.198 76.2773 426.17 75.203 433.546 67.3243C440.922 59.4456 457.377 53.5364 470.428 66.2498C483.478 78.9632 488.018 78.0679 508.445 81.6491C528.871 85.2303 542.489 87.7373 548.731 78.9633C554.972 70.1892 561.781 61.7733 579.939 61.7733C598.096 61.7733 602.068 62.1314 612.281 51.5668C622.495 41.0022 622.495 41.0023 641.219 40.4651C659.944 39.9279 656.539 39.5697 662.781 25.603C669.022 11.6362 667.888 0.892577 684.343 0.892578C700.798 0.892579 701.932 3.57849 703.067 10.3828C704.202 17.1871 710.444 27.0354 724.629 25.603C738.814 24.1705 753 24.1705 758.106 30.9749C763.213 37.7792 768.32 44.2254 791.584 41.5395C814.848 38.8536 812.01 45.6579 820.522 49.06C829.033 52.4622 835.842 54.432 849.46 52.9994C863.078 51.5668 857.404 50.4925 875.561 52.9994C893.718 55.5062 899.959 56.9387 909.038 61.7734C918.117 66.608 921.521 68.5777 938.544 66.9662C955.566 65.3546 954.998 67.8615 960.673 71.4427C966.347 75.0239 974.858 81.2911 982.234 81.8282C989.611 82.3654 995.852 80.0376 1008.9 83.4398C1021.95 86.842 1020.82 85.7676 1026.49 90.0651C1032.17 94.3625 1037.27 96.6903 1054.3 96.1531C1071.32 95.616 1073.02 96.1531 1078.69 99.7344C1084.37 103.316 1101.96 111.552 1113.87 105.643C1125.79 99.7344 1138.84 93.2882 1144.51 86.3048C1150.19 79.3214 1156.41 69.473 1170.89 73.9495C1185.37 78.4261 1187.64 85.0513 1201.26 83.4398C1214.87 81.8282 1220.55 80.3958 1231.9 85.2304C1243.24 90.0651 1245.51 92.751 1262.54 90.0651C1279.56 87.3791 1282.4 88.9907 1292.61 92.5719C1302.82 96.1531 1301.69 96.1531 1307.93 96.1531" stroke="#79B51B" stroke-width="4" stroke-linecap="round"/>
<defs>
<linearGradient id="paint0_linear_122_1051" x1="656.5" y1="0.924561" x2="656.5" y2="189.211" gradientUnits="userSpaceOnUse">
<stop stop-color="#79B51B"/>
<stop offset="0.46679" stop-color="#79B51B" stop-opacity="0.5"/>
<stop offset="1" stop-color="white"/>
</linearGradient>
</defs>
</svg>
