<svg width="72" height="42" viewBox="0 0 72 42" fill="none" xmlns="http://www.w3.org/2000/svg">
<g filter="url(#filter0_d_122_1058)">
<path d="M71.7344 26.4309C71.7342 30.8489 68.1524 34.4308 63.7344 34.4309L45.4699 34.4309C44.8361 34.4309 44.2949 34.8713 43.8037 35.2717L37.251 40.6135C36.5153 41.2132 35.4593 41.2132 34.7236 40.6135L28.1699 35.2717C27.679 34.8714 27.1387 34.4309 26.5053 34.4309L8.24023 34.4309C3.82208 34.4309 0.240439 30.849 0.240233 26.4309L0.240234 8.01001C0.240234 3.59173 3.82195 0.0100072 8.24023 0.0100072L63.7344 0.0100094C68.1525 0.0101477 71.7344 3.59182 71.7344 8.01001L71.7344 26.4309Z" fill="white"/>
</g>
<defs>
<filter id="filter0_d_122_1058" x="-15.7598" y="-13.99" width="103.494" height="73.0532" filterUnits="userSpaceOnUse" color-interpolation-filters="sRGB">
<feFlood flood-opacity="0" result="BackgroundImageFix"/>
<feColorMatrix in="SourceAlpha" type="matrix" values="0 0 0 0 0 0 0 0 0 0 0 0 0 0 0 0 0 0 127 0" result="hardAlpha"/>
<feOffset dy="2"/>
<feGaussianBlur stdDeviation="8"/>
<feComposite in2="hardAlpha" operator="out"/>
<feColorMatrix type="matrix" values="0 0 0 0 0.0509804 0 0 0 0 0.0392157 0 0 0 0 0.172549 0 0 0 0.12 0"/>
<feBlend mode="normal" in2="BackgroundImageFix" result="effect1_dropShadow_122_1058"/>
<feBlend mode="normal" in="SourceGraphic" in2="effect1_dropShadow_122_1058" result="shape"/>
</filter>
</defs>
</svg>
