<svg width="31" height="30" viewBox="0 0 31 30" fill="none" xmlns="http://www.w3.org/2000/svg">
<path d="M14.2499 25C13.8957 25 13.5988 24.8802 13.3592 24.6406C13.1196 24.401 12.9999 24.1042 12.9999 23.75V16.25L5.74986 7C5.43736 6.58333 5.39048 6.14583 5.60923 5.6875C5.82798 5.22917 6.20819 5 6.74986 5H24.2499C24.7915 5 25.1717 5.22917 25.3905 5.6875C25.6092 6.14583 25.5624 6.58333 25.2499 7L17.9999 16.25V23.75C17.9999 24.1042 17.8801 24.401 17.6405 24.6406C17.4009 24.8802 17.104 25 16.7499 25H14.2499ZM15.4999 15.375L21.6874 7.5H9.31236L15.4999 15.375Z" fill="black"/>
</svg>
