<svg width="20" height="20" viewBox="0 0 20 20" fill="none" xmlns="http://www.w3.org/2000/svg">
<path d="M6.66675 18.75L5.00008 17.5V14.1666H4.16675C3.70841 14.1666 3.31605 14.0034 2.98966 13.677C2.66328 13.3507 2.50008 12.9583 2.50008 12.5V6.24996C2.26397 6.24996 2.06605 6.1701 1.90633 6.01038C1.74661 5.85065 1.66675 5.65274 1.66675 5.41663C1.66675 5.18052 1.74661 4.9826 1.90633 4.82288C2.06605 4.66315 2.26397 4.58329 2.50008 4.58329H5.00008V3.33329H4.58341C4.3473 3.33329 4.14939 3.25343 3.98966 3.09371C3.82994 2.93399 3.75008 2.73607 3.75008 2.49996C3.75008 2.26385 3.82994 2.06593 3.98966 1.90621C4.14939 1.74649 4.3473 1.66663 4.58341 1.66663H7.08342C7.31953 1.66663 7.51744 1.74649 7.67717 1.90621C7.83689 2.06593 7.91675 2.26385 7.91675 2.49996C7.91675 2.73607 7.83689 2.93399 7.67717 3.09371C7.51744 3.25343 7.31953 3.33329 7.08342 3.33329H6.66675V4.58329H9.16675C9.40286 4.58329 9.60078 4.66315 9.7605 4.82288C9.92022 4.9826 10.0001 5.18052 10.0001 5.41663C10.0001 5.65274 9.92022 5.85065 9.7605 6.01038C9.60078 6.1701 9.40286 6.24996 9.16675 6.24996V12.5C9.16675 12.9583 9.00355 13.3507 8.67717 13.677C8.35078 14.0034 7.95842 14.1666 7.50008 14.1666H6.66675V18.75ZM4.16675 12.5H7.50008V11.25H6.04175C5.87508 11.25 5.72925 11.1875 5.60425 11.0625C5.47925 10.9375 5.41675 10.7916 5.41675 10.625C5.41675 10.4583 5.47925 10.3125 5.60425 10.1875C5.72925 10.0625 5.87508 9.99996 6.04175 9.99996H7.50008V8.74996H6.04175C5.87508 8.74996 5.72925 8.68746 5.60425 8.56246C5.47925 8.43746 5.41675 8.29163 5.41675 8.12496C5.41675 7.95829 5.47925 7.81246 5.60425 7.68746C5.72925 7.56246 5.87508 7.49996 6.04175 7.49996H7.50008V6.24996H4.16675V12.5ZM12.5001 18.3333C12.0417 18.3333 11.6494 18.1701 11.323 17.8437C10.9966 17.5173 10.8334 17.125 10.8334 16.6666V11.25C10.8334 10.8472 10.9029 10.5138 11.0417 10.25C11.1806 9.98607 11.3265 9.7569 11.4792 9.56246C11.632 9.36802 11.7709 9.21177 11.8959 9.09371C12.0209 8.97565 12.0834 8.86107 12.0834 8.74996V8.33329C11.8473 8.33329 11.6494 8.25343 11.4897 8.09371C11.3299 7.93399 11.2501 7.73607 11.2501 7.49996C11.2501 7.26385 11.3299 7.06593 11.4897 6.90621C11.6494 6.74649 11.8473 6.66663 12.0834 6.66663H16.2501C16.4862 6.66663 16.6841 6.74649 16.8438 6.90621C17.0036 7.06593 17.0834 7.26385 17.0834 7.49996C17.0834 7.73607 17.0036 7.93399 16.8438 8.09371C16.6841 8.25343 16.4862 8.33329 16.2501 8.33329V8.74996C16.2501 8.86107 16.3195 8.98607 16.4584 9.12496C16.5973 9.26385 16.7501 9.43052 16.9167 9.62496C17.0695 9.8194 17.2049 10.0486 17.323 10.3125C17.4411 10.5763 17.5001 10.8888 17.5001 11.25V16.6666C17.5001 17.125 17.3369 17.5173 17.0105 17.8437C16.6841 18.1701 16.2917 18.3333 15.8334 18.3333H12.5001ZM12.5001 11.6666H15.8334V11.25C15.8334 11.0416 15.7709 10.8611 15.6459 10.7083C15.5209 10.5555 15.382 10.3888 15.2292 10.2083C15.0765 10.0277 14.9306 9.82635 14.7917 9.60413C14.6529 9.3819 14.5834 9.09718 14.5834 8.74996V8.33329H13.7501V8.74996C13.7501 9.08329 13.6841 9.36107 13.5522 9.58329C13.4202 9.80552 13.2779 10.0069 13.1251 10.1875C12.9723 10.368 12.8299 10.5382 12.698 10.6979C12.5661 10.8576 12.5001 11.0416 12.5001 11.25V11.6666ZM12.5001 14.1666H15.8334V12.9166H12.5001V14.1666ZM12.5001 16.6666H15.8334V15.4166H12.5001V16.6666Z" fill="black"/>
</svg>
